<svg xmlns="http://www.w3.org/2000/svg" viewBox="0 0 64 64"><title>Engine, car, machine, motor, auto, </title><g id="Glyph"><rect x="28" y="19" width="4" height="2" id="id_101" style="fill: rgb(250, 254, 255);"></rect><path d="M4,26.535v2.944l2.552,1.687A1,1,0,0,1,7,32V47H9V25H6.3Z" id="id_102" style="fill: rgb(245, 245, 245);"></path><polygon points="33 17 39 17 39 15 21 15 21 17 27 17 33 17" id="id_103" style="fill: rgb(247, 254, 255);"></polygon><rect x="11" y="34" width="2" height="4" id="id_104" style="fill: rgb(245, 253, 255);"></rect><path d="M59,26H58V46h1a1,1,0,0,0,1-1V27A1,1,0,0,0,59,26Z" id="id_105" style="fill: rgb(255, 255, 255);"></path><rect x="54" y="32" width="2" height="8" id="id_106" style="fill: rgb(245, 249, 250);"></rect><path d="M45.293,28.707,39.586,23H20.414L15,28.414V43.586L20.414,49H39.638l5.722-4.768A1,1,0,0,1,46,44h6V29H46A1,1,0,0,1,45.293,28.707ZM38.768,34.64l-10,12a1,1,0,0,1-1.726-.927L29.656,37H27a1,1,0,0,1-.981-1.2l2-10A1,1,0,0,1,29,25h8a1,1,0,0,1,.97,1.243L36.281,33H38a1,1,0,0,1,.768,1.64Z" id="id_107" style="fill: rgb(252, 252, 252);"></path><path d="M34.212,34.615a1,1,0,0,1-.182-.858L35.719,27h-5.9l-1.6,8H31a1,1,0,0,1,.958,1.287L30.363,41.6l5.5-6.6H35A1,1,0,0,1,34.212,34.615Z" id="id_108" style="fill: rgb(247, 251, 252);"></path></g></svg>