<?xml version="1.0" encoding="UTF-8" standalone="no"?>
<svg
   xmlns:dc="http://purl.org/dc/elements/1.1/"
   xmlns:cc="http://creativecommons.org/ns#"
   xmlns:rdf="http://www.w3.org/1999/02/22-rdf-syntax-ns#"
   xmlns:svg="http://www.w3.org/2000/svg"
   xmlns="http://www.w3.org/2000/svg"
   xmlns:sodipodi="http://sodipodi.sourceforge.net/DTD/sodipodi-0.dtd"
   xmlns:inkscape="http://www.inkscape.org/namespaces/inkscape"
   width="44"
   height="44"
   viewBox="0 0 16.933333 16.933334"
   version="1.1"
   id="svg8"
   inkscape:version="0.92.3 (2405546, 2018-03-11)"
   sodipodi:docname="08-Leadership.svg"
   inkscape:export-filename="/home/wanzabuyumna/@WANZ_DESIGN/NICON STUDIO MAGANG/Project 3/Style Line/PNG/Ic_08.png"
   inkscape:export-xdpi="102.40003"
   inkscape:export-ydpi="102.40003">
  <defs
     id="defs2" />
  <sodipodi:namedview
     id="base"
     pagecolor="#ffffff"
     bordercolor="#ffffff"
     borderopacity="1"
     inkscape:pageopacity="0"
     inkscape:pageshadow="2"
     inkscape:zoom="4"
     inkscape:cx="9.281076"
     inkscape:cy="3.9115988"
     inkscape:document-units="px"
     inkscape:current-layer="layer1"
     inkscape:document-rotation="0"
     showgrid="false"
     units="px"
     inkscape:window-width="1920"
     inkscape:window-height="1040"
     inkscape:window-x="0"
     inkscape:window-y="0"
     inkscape:window-maximized="1"
     inkscape:pagecheckerboard="0"
     inkscape:snap-global="true"
     inkscape:snap-bbox="true"
     inkscape:bbox-nodes="true"
     inkscape:snap-bbox-edge-midpoints="true">
    <inkscape:grid
       type="xygrid"
       id="grid816" />
  </sodipodi:namedview>
  <metadata
     id="metadata5">
    <rdf:RDF>
      <cc:Work
         rdf:about="">
        <dc:format>image/svg+xml</dc:format>
        <dc:type
           rdf:resource="http://purl.org/dc/dcmitype/StillImage" />
      </cc:Work>
    </rdf:RDF>
  </metadata>
  <g
     inkscape:label="08-Leadership"
     inkscape:groupmode="layer"
     id="layer1">
    <path
       style="color:#ffffff;display:inline;opacity:1;fill:#ffffff;stroke-width:3.77952743;stroke-linecap:round;stroke-linejoin:round;paint-order:stroke fill markers"
       d="M 32.001953,2 C 31.702138,2 31.455927,2.1319633 31.248047,2.3398438 L 24.25,10.341797 c -0.210214,0.246414 -0.255917,0.522497 -0.236328,0.744141 0.01999,0.226423 0.116292,0.439285 0.273437,0.603515 0.213457,0.250398 0.548005,0.314453 0.71875,0.314453 h 2.998047 L 28,23.511719 c 0,0.316743 0.155388,0.547242 0.306641,0.703125 0.350188,0.318973 0.729964,0.335999 1.039062,0.234375 0.831118,-0.292725 1.721611,-0.451172 2.65625,-0.451172 0.908258,0 1.838452,0.182026 2.671875,0.472656 0.356659,0.137473 0.769789,0.031 1.03711,-0.236328 0.24486,-0.237283 0.294921,-0.53859 0.294921,-0.708984 V 12.003906 h 2.996094 c 0.494275,0.0068 0.811735,-0.359105 0.908203,-0.585937 0.209726,-0.446879 0.03351,-0.876857 -0.154297,-1.076172 L 32.757812,2.3398438 C 32.500049,2.0549471 32.137776,2 32.001953,2 Z m -21.03125,7 c -0.231333,0.00858 -0.453766,0.096941 -0.626953,0.25 l -8.0019531,6.996094 c -0.4558677,0.398454 -0.4558677,1.107405 0,1.505859 L 10.34375,24.75 c 0.64717,0.571719 1.665963,0.10961 1.662109,-0.753906 V 21 h 3.992188 c 1.125165,-2.04e-4 1.998047,0.874789 1.998047,2 v 8.998047 c 0.0022,0.553051 0.4528,0.999333 1.005859,0.996094 1.332609,3.4e-5 2.675728,0.002 4.001953,0.002 0.403457,-0.0019 0.766266,-0.246086 0.919922,-0.619141 C 23.973427,32.257433 23.99918,32.130375 24,32 24.000416,30.091845 24.661777,28.346239 25.771484,26.972656 25.932556,26.811584 26,26.509642 26,26.306641 V 21 c 0,-4.414288 -3.587541,-8.002169 -8.001953,-8.001953 H 12.007812 V 10.001953 C 12.008273,9.6071641 11.77642,9.2490519 11.416016,9.0878906 11.276279,9.0248557 11.124269,8.9948069 10.970703,9 Z M 53.03125,9 c -0.153222,-0.00522 -0.305583,0.024848 -0.445312,0.087891 -0.359623,0.1617487 -0.590653,0.5197335 -0.589844,0.9140624 v 2.996094 h -6 C 41.581681,12.997835 38.001953,16.585712 38.001953,21 v 4.996094 c 0,0.381701 0.0017,0.757528 0.228516,0.984375 1.107817,1.372989 1.771031,3.114146 1.771484,5.019531 0.0013,0.128088 0.02801,0.25464 0.07813,0.376953 0.155868,0.375538 0.517414,0.617903 0.919922,0.619141 1.329948,-0.0041 2.667686,-0.002 4,-0.002 0.549241,-0.0022 0.993947,-0.446867 0.996094,-0.996094 V 23 c 0,-1.125211 0.872881,-2.000204 1.998047,-2 h 4.001953 v 2.996094 c -0.0023,0.861456 1.013037,1.32256 1.660156,0.753906 l 8.001953,-6.998047 c 0.455868,-0.398454 0.455868,-1.107405 0,-1.505859 L 53.65625,9.25 C 53.483072,9.0969367 53.262224,9.008606 53.03125,9 Z M 32,25.962891 c -3.325304,0 -6.001953,2.68349 -6.001953,6.017578 0,3.334087 2.676649,6.015625 6.001953,6.015625 3.325304,0 6.001953,-2.681538 6.001953,-6.015625 0,-3.334088 -2.676649,-6.017578 -6.001953,-6.017578 z M 11,35 c -1.9329967,0 -3.5000002,1.567003 -3.5,3.5 -2e-7,1.932997 1.5670033,3.5 3.5,3.5 1.932997,0 3.5,-1.567003 3.5,-3.5 C 14.5,36.567003 12.932997,35 11,35 Z m 42,0 c -1.932997,0 -3.5,1.567003 -3.5,3.5 0,1.932997 1.567003,3.5 3.5,3.5 1.932997,0 3.5,-1.567003 3.5,-3.5 C 56.5,36.567003 54.932997,35 53,35 Z M 27.683594,38.667969 C 22.62052,40.444139 19,45.253995 19,50.96875 v 9.021484 c 0,0.798607 0.225647,1.331073 0.583984,1.634766 0.357166,0.302816 0.968084,0.500746 2.107422,0.28125 l 17.757813,-4.794922 c 1.136277,-0.306746 1.785615,-1.434177 1.482422,-2.574219 -0.303118,-1.140019 -1.415517,-1.769753 -2.576172,-1.472656 l -15.132813,3.511719 c -0.535105,0.122343 -1.068622,-0.208744 -1.195312,-0.744141 -0.126614,-0.539716 0.207472,-1.079061 0.746094,-1.205078 l 0.228515,-0.05273 v -3.603516 c 0.0011,-0.551384 0.446135,-0.999799 0.996094,-1.001953 0.552983,-0.0022 1.002848,0.447512 1.003906,1.001953 v 3.136719 l 12.859375,-2.990234 c 0.397947,-0.10254 0.743837,0.138385 1.136719,0.154296 v -0.300781 c 0.0011,-0.554441 0.450886,-1.004119 1.003906,-1.001953 0.549959,0.0022 0.994998,0.450569 0.996094,1.001953 v 0.636719 c 0.875603,0.526326 1.578355,1.348032 1.861328,2.412109 0.579742,2.179786 -0.721832,4.444709 -2.894531,5.03125 l -4.119141,1.109375 6.466797,1.746094 c 1.135559,0.219402 1.746199,0.02039 2.103516,-0.28125 C 44.774693,61.322298 45,60.800933 45,60.011719 V 50.970703 C 45,45.255846 41.378454,40.44605 36.314453,38.669922 35.068418,39.473759 33.586003,39.941406 32,39.941406 c -1.587515,0 -3.070391,-0.468175 -4.316406,-1.273437 z M 8.21875,43.142578 c -2.4782366,1.082245 -4.2148438,3.5438 -4.2148438,6.476563 v 1.345703 C 4.0039062,52.66873 5.325178,53.999992 7,54 h 8.001953 C 15.804152,54 16.469658,53.626885 17,53.113281 v -2.117187 c 0,-1.371338 0.192839,-2.696713 0.535156,-3.958985 -0.637288,-1.635976 -1.995678,-3.12104 -3.75,-3.892578 C 12.9876,43.683961 12.029493,44 11.001953,44 9.9734681,44.000004 9.0154744,43.682937 8.21875,43.142578 Z m 47.566406,0 C 54.988432,43.682937 54.030438,44.000004 53.001953,44 c -1.02754,0 -1.985647,-0.316039 -2.783203,-0.855469 -1.754321,0.771538 -3.112715,2.256602 -3.75,3.892578 0.342323,1.262272 0.535156,2.587647 0.535156,3.958985 v 2.117187 C 47.53425,53.626885 48.199752,54 49.001953,54 h 8.001953 C 58.678728,53.999992 60,52.66873 60,50.964844 v -1.345703 c 0,-2.932763 -1.736608,-5.394318 -4.214844,-6.476563 z M 36.001953,45 h 2.996094 c 0.555288,-0.0022 1.00606,0.449124 1.003906,1.005859 -0.0022,0.553678 -0.451642,1.000213 -1.003906,0.998047 h -2.996094 c -0.552227,0.0022 -1.001752,-0.444369 -1.003906,-0.998047 C 34.995817,45.449127 35.446665,44.997823 36.001953,45 Z"
       transform="scale(0.26458334)"
       id="path834"
       inkscape:connector-curvature="0"
       sodipodi:nodetypes="cccccccccccccccccccccccccccccccccccccccccccccccccccccccccccccccccccccccccccccccccccccccccccccccccccccccccccccccccccccccccccccccccccccccccccc" />
  </g>
</svg>
